<svg width="35" height="35" viewBox="0 0 35 35" fill="none" xmlns="http://www.w3.org/2000/svg">
<path opacity="0.5" d="M35 17.5C35 27.1649 27.1649 35 17.5 35C7.83501 35 0 27.1649 0 17.5C0 7.83501 7.83501 0 17.5 0C27.1649 0 35 7.83501 35 17.5Z" fill="#F64136"/>
<path d="M25.9122 29.7696C23.5196 31.4132 20.6222 32.375 17.5 32.375C14.3778 32.375 11.4804 31.413 9.08775 29.7694C8.03101 29.0435 7.5794 27.6609 8.19383 26.5356C9.46751 24.2029 12.092 22.75 17.5 22.75C22.908 22.75 25.5325 24.203 26.8061 26.5356C27.4206 27.6609 26.9689 29.0437 25.9122 29.7696Z" fill="#F64136"/>
<path d="M17.4999 17.5C20.3995 17.5 22.7499 15.1496 22.7499 12.25C22.7499 9.35051 20.3995 7 17.4999 7C14.6005 7 12.25 9.35051 12.25 12.25C12.25 15.1496 14.6005 17.5 17.4999 17.5Z" fill="#F64136"/>
</svg>
